
<svg xmlns="http://www.w3.org/2000/svg" width="60" height="60" viewBox="0 0 24 24">
  <path fill="#4CAF50" opacity="0.15" d="M12 1c-2.2 0-4 1.8-4 4 0 0-.2 1.4 1.4 3.2-2.4-.1-3 .6-3.9 1.5-1.2 1.2-1.5 2-1.5 2 0 2.2 1.8 4 4 4 4.4 0 5.3-1.8 5.8-2.8.2-.4.6-.6.8-1 .3.4.5.6.8 1 .5 1 1.4 2.8 5.8 2.8 2.2 0 4-1.8 4-4 0 0-.3-.8-1.5-2-1-1-1.5-1.6-4-1.5 1.6-1.8 1.4-3.2 1.4-3.2 0-2.2-1.8-4-4-4-1.8 0-2.8.8-3.3 1.6-.1.1-.3.4-.7 1.2-.3-.8-.5-1-.7-1.2C14.8 1.8 13.8 1 12 1zm0 2c.5 0 .9.2 1.3.5s.5.8.5 1.3c0 .6-1 2.4-1.8 4.1-.8-1.7-1.8-3.5-1.8-4.1 0-.5.2-.9.5-1.3.4-.3.8-.5 1.3-.5zm-7 7.2c.2 0 .5 0 .6.1 2 .2 2.7.4 3.3 1 .6.6.8 1.3 1 3.3.1.6.7 1.1 1.3 1.1.2 0 .3 0 .5-.1.5-.2.8-.6.8-1.1v-.5c0-.4 0-.7.1-1v-.7c1 .7 1.9 1.9 1.9 3.4 0 .6-.2 1.1-.5 1.5-.3.4-.7.6-1.1.6-1.6 0-2.3-.4-2.8-1.1-.3-.4-.4-.9-.7-1.5-.3.6-.4 1-.7 1.5-.5.7-1.1 1.1-2.8 1.1-.4 0-.8-.2-1.1-.6-.3-.4-.5-.9-.5-1.5 0-1.5.9-2.7 1.9-3.4v.7c0 .3 0 .7.1 1v.5c0 .5.3.9.8 1.1.2.1.3.1.5.1.6 0 1.1-.5 1.3-1.1.3-2 .5-2.7 1-3.3.6-.6.9-.9 3.1-1l-.3-.2c-.7-.4-1-.6-1.4-1-.8 0-1.2.1-1.7.2-.5.1-.8.2-1.3.3-.3.1-.5.2-.8.2-.4 0-.9-.2-1.2-.5-.3-.3-.5-.8-.5-1.2 0-.1 0-.1.1-.4l1.1.2c.3 0 .5.1.7.1h1zm14 0h.4c.2 0 .4 0 .7-.1l1.1-.2c0 .2.1.3.1.4 0 .4-.2.8-.5 1.2-.3.3-.7.5-1.2.5-.2 0-.5-.1-.8-.2-.5-.1-.8-.2-1.3-.3-.4-.1-.9-.1-1.7-.2-.4.4-.8.7-1.4 1l-.3.2c2.2.1 2.6.4 3.1 1 .6.6.8 1.3 1 3.3.1.6.7 1.1 1.3 1.1.2 0 .3 0 .5-.1.5-.2.8-.6.8-1.1v-.5c0-.4.1-.7.1-1v-.7c1 .7 1.9 1.9 1.9 3.4 0 .6-.2 1.1-.5 1.5-.3.4-.7.6-1.1.6-1.6 0-2.3-.4-2.8-1.1-.3-.4-.4-.9-.7-1.5-.3.6-.4 1-.7 1.5-.5.7-1.1 1.1-2.8 1.1-.4 0-.8-.2-1.1-.6-.3-.4-.5-.9-.5-1.5 0-1.5.9-2.7 1.9-3.4v.7c0 .3 0 .7.1 1v.5c0 .5.3.9.8 1.1.2.1.3.1.5.1.6 0 1.1-.5 1.3-1.1.3-2 .5-2.7 1-3.3s1.3-.8 3.3-1c-.1-.1-.2-.1-.2-.2-.7-.4-1-.6-1.4-1-.8 0-1.2.1-1.7.2-.5.1-.8.2-1.3.3-.3.1-.5.2-.8.2-.4 0-.9-.2-1.2-.5-.3-.3-.5-.8-.5-1.2 0-.1 0-.1.1-.4l1.1.2c.3 0 .5.1.7.1h1z"/>
</svg>
